<?xml version="1.0" encoding="UTF-8"?>
<svg xmlns="http://www.w3.org/2000/svg" version="1.1" viewBox="0 0 500 500">
  <defs>
    <style>
      .cls-1 {
        fill: #f95059;
      }

      .cls-2 {
        fill: #b0060c;
      }
    </style>
  </defs>
  <!-- Generator: Adobe Illustrator 28.6.0, SVG Export Plug-In . SVG Version: 1.2.0 Build 709)  -->
  <g>
    <g id="Camada_1">
      <g>
        <g>
          <path class="cls-2" d="M188.43,471.32c-16.14,0-28.77-4.87-37.89-14.62-9.12-9.75-13.68-22.38-13.68-37.89,0-12.37,2.26-23.95,6.76-34.75,4.51-10.79,10.64-20.75,18.39-29.87,7.75-9.12,16.56-17.4,26.41-24.84,9.85-7.44,20.02-14.1,30.5-19.97l12.26-77.98h-44.02l7.55-48.42h99.05l-34.27,217.27c-2.1,14.46-6.08,26.99-11.95,37.57-5.87,10.58-13.68,18.81-23.42,24.68-9.75,5.87-21.65,8.8-35.69,8.8ZM193.78,421.32c2.09,0,3.98-.63,5.66-1.89,1.68-1.26,3.09-3.04,4.24-5.35,1.15-2.31,1.94-5.03,2.36-8.18l6.6-42.13c-4.2,2.94-8.02,6.24-11.48,9.9-3.46,3.67-6.34,7.55-8.65,11.63-2.31,4.09-4.09,8.18-5.35,12.26-1.26,4.09-1.89,8.02-1.89,11.79s.73,6.71,2.2,8.8c1.46,2.09,3.56,3.15,6.29,3.15Z"/>
          <path class="cls-2" d="M292.19,403.09l34.59-220.1h91.5c15.3,0,28.66,3.14,40.09,9.43,11.42,6.29,20.38,14.83,26.88,25.63,6.49,10.8,9.75,23.11,9.75,36.95,0,12.16-2.36,23.58-7.08,34.27-4.72,10.69-11.27,20.07-19.65,28.14-8.39,8.07-18.24,14.36-29.56,18.87-11.32,4.51-23.58,6.76-36.79,6.76h-40.25l-9.43,60.06h-60.06ZM369.54,294.61h28.61c7.96,0,14.57-1.78,19.81-5.35,5.24-3.56,9.17-8.02,11.79-13.36,2.62-5.35,3.93-10.85,3.93-16.51,0-4.82-1-9.33-2.99-13.52-1.99-4.19-4.98-7.6-8.96-10.22-3.98-2.62-9.23-3.93-15.72-3.93h-26.73l-9.75,62.89Z"/>
        </g>
        <g>
          <path class="cls-1" d="M5,328.79l2.1-33.08c.56-8.84,3.29-15.65,8.19-20.45,4.9-4.79,11.34-6.94,19.31-6.43,5.16.33,9.63,1.69,13.4,4.09,3.78,2.4,6.63,5.62,8.57,9.67l30.84-14.53-1.48,23.35-26.96,11.01-.55,8.68,26.16,1.66-1.33,21-78.25-4.97ZM33.74,289.75c-2.97-.19-5.34.59-7.1,2.32-1.76,1.73-2.75,4.28-2.96,7.65l-.58,9.15,18.65,1.18.58-9.15c.22-3.44-.44-6.11-1.96-8.02-1.53-1.9-3.74-2.95-6.63-3.13Z"/>
          <path class="cls-1" d="M65.21,249.48c-5.53-2.2-9.93-5.29-13.2-9.29-3.26-3.99-5.25-8.55-5.95-13.68-.7-5.13.01-10.38,2.15-15.77,2.17-5.46,5.23-9.71,9.17-12.74,3.94-3.03,8.45-4.78,13.53-5.25,5.08-.47,10.46.42,16.14,2.68l4.26,1.69-14.01,35.29c6.04,1.13,10.51-1.94,13.4-9.22,2.02-5.1,2.36-10.61,1.01-16.55l13.9-2.2c1.26,3.62,1.72,7.77,1.38,12.44-.34,4.67-1.46,9.41-3.37,14.22-2.37,5.97-5.51,10.69-9.42,14.16-3.91,3.47-8.35,5.58-13.33,6.34-4.98.76-10.2.06-15.67-2.11ZM66.66,210.79c-2.01,1.02-3.49,2.73-4.44,5.13-.98,2.48-1.06,4.79-.22,6.93.83,2.15,2.46,3.99,4.88,5.54l7.2-18.14c-2.94-.66-5.41-.48-7.42.53Z"/>
          <path class="cls-1" d="M96.95,177.8c-4.55-3.6-7.72-7.83-9.52-12.7-1.8-4.87-2.25-9.92-1.35-15.16.89-5.24,3.16-10.16,6.81-14.77,5.44-6.88,12.33-10.73,20.66-11.54l3.89,16.11c-4.2.38-7.46,2.04-9.79,4.99-2.14,2.71-3.01,5.58-2.63,8.63.38,3.05,1.96,5.67,4.73,7.86,2.83,2.24,5.78,3.2,8.87,2.9,3.09-.31,5.7-1.81,7.84-4.52,1.31-1.66,2.19-3.37,2.62-5.12.44-1.75.55-3.76.34-6.02l16.5.16c1.24,8.17-1.09,15.97-6.97,23.41-3.65,4.61-7.87,7.96-12.67,10.06-4.81,2.1-9.74,2.81-14.81,2.15-5.07-.66-9.91-2.82-14.52-6.46Z"/>
          <path class="cls-1" d="M111.44,85.45l15.89-13.06,49.77,60.58-15.89,13.06-49.77-60.58Z"/>
          <path class="cls-1" d="M180.96,109.89c-2.74-5.55-2.86-10.89-.36-16.01,2.5-5.12,7.54-9.55,15.13-13.3,1.12-.55,2.32-1.1,3.58-1.64,1.26-.54,2.65-1.05,4.16-1.53l-.31-.63c-2.15-4.36-6.46-4.94-12.92-1.75-5.13,2.53-8.9,6.05-11.3,10.56l-11.73-8.1c4.1-7.09,10.47-12.77,19.12-17.04,8.15-4.02,15.24-5.29,21.26-3.81,6.02,1.49,10.68,5.57,13.97,12.24l15.09,30.57-16.13,7.96-3.6-5.17c-.51,3.05-1.76,5.85-3.78,8.42-2.01,2.57-4.77,4.72-8.29,6.45-4.92,2.43-9.56,2.99-13.91,1.69-4.36-1.3-7.68-4.27-9.97-8.91ZM197.1,99.04c1.77,3.58,4.69,4.37,8.77,2.36,2.25-1.11,3.79-2.59,4.62-4.45.83-1.85.76-3.76-.21-5.73l-2.19-4.43c-2.04.66-3.79,1.35-5.27,2.08-5.76,2.84-7.67,6.23-5.73,10.17Z"/>
          <path class="cls-1" d="M252.15,34.9l18.65-1.16,1.47,6.62c1.48-2.68,3.64-4.88,6.48-6.59,2.84-1.71,6.13-2.68,9.89-2.91,7.51-.47,13.05,2.13,16.62,7.8,1.77-3.17,4.15-5.56,7.15-7.16,3-1.6,6.46-2.52,10.37-2.76,6.34-.39,11.46,1.23,15.38,4.87,3.92,3.64,6.09,8.87,6.51,15.67l2.2,35.31-20.53,1.28-1.89-30.39c-.35-5.63-2.83-8.3-7.45-8.02-2.42.15-4.28,1.17-5.58,3.06-1.3,1.89-1.84,4.43-1.64,7.64l1.78,28.63-20.53,1.28-1.89-30.39c-.35-5.63-2.83-8.3-7.45-8.02-2.5.16-4.4,1.18-5.7,3.06-1.3,1.89-1.84,4.43-1.64,7.64l1.78,28.63-20.53,1.28-3.44-55.37Z"/>
          <path class="cls-1" d="M373.82,64.76c1.96-5.62,4.86-10.15,8.72-13.58,3.85-3.43,8.32-5.61,13.42-6.53,5.09-.92,10.38-.43,15.85,1.48,5.55,1.93,9.92,4.81,13.12,8.62,3.19,3.81,5.14,8.24,5.82,13.29.69,5.05.03,10.47-1.99,16.24l-1.51,4.33-35.85-12.5c-.88,6.09,2.39,10.42,9.79,13,5.18,1.8,10.7,1.91,16.58.3l2.79,13.79c-3.57,1.41-7.69,2.05-12.37,1.91-4.68-.14-9.47-1.06-14.35-2.76-6.07-2.12-10.92-5.05-14.55-8.81-3.63-3.75-5.93-8.1-6.9-13.05-.97-4.95-.49-10.19,1.44-15.74ZM412.54,64.56c-1.1-1.96-2.87-3.37-5.31-4.22-2.52-.88-4.83-.85-6.93.07-2.11.93-3.88,2.63-5.33,5.11l18.43,6.42c.54-2.97.25-5.43-.85-7.39Z"/>
        </g>
      </g>
    </g>
  </g>
</svg>